<svg id="Layer_1" data-name="Layer 1" xmlns="http://www.w3.org/2000/svg" viewBox="0 0 980 579"><defs><style>.cls-1{fill:#fff;}.cls-2{fill:brown;}.cls-3{fill:none;stroke:#fff;stroke-miterlimit:10;stroke-width:20px;}</style></defs><rect class="cls-1" x="744.5" y="303.45" width="17.11" height="210.23"/><path class="cls-1" d="M734.5,262V472.18H696.89V451.45c-10.66,13-24.19,24.19-47.52,24.19-36.86,0-68.83-30.82-68.83-80.64v-.58c0-50.68,31.68-81.5,68.54-81.5,23.62,0,37.44,10.66,47.81,22.46V262ZM697.75,394.42v-.57c0-20.45-14.11-35.14-31.68-35.14s-32,14.4-32,35.14v.57c0,20.74,14.4,35.43,32,35.43S697.75,415.16,697.75,394.42Z" transform="translate(10 41.5)"/><path class="cls-2" d="M697.75,393.85v.57c0,20.74-14.11,35.43-31.68,35.43s-32-14.69-32-35.43v-.57c0-20.74,14.4-35.14,32-35.14S697.75,373.4,697.75,393.85Z" transform="translate(10 41.5)"/><path class="cls-1" d="M492.12,435c13,0,23.33-4.9,34.56-15.84l30.24,25.06c-15,19-36.57,31.68-67.68,31.68-1.59,0-3.17,0-4.74-.1V434.4A44.52,44.52,0,0,0,492.12,435Z" transform="translate(10 41.5)"/><path class="cls-2" d="M511.71,381.46H484.5V353.24h.14C499.61,353.24,509.69,364.18,511.71,381.46Z" transform="translate(10 41.5)"/><path class="cls-1" d="M484.5,381.46h27.21c-2-17.28-12.1-28.22-27.07-28.22h-.14V312.92c53.75.07,78.47,39.5,78.47,85.25,0,3.45,0,7.48-.29,11.23H484.5Z" transform="translate(10 41.5)"/><path class="cls-2" d="M734.5,472.18V537.5h-250V475.83c1.57.07,3.15.1,4.74.1,31.11,0,52.71-12.68,67.68-31.68l-30.24-25.06C515.45,430.13,505.08,435,492.12,435a44.52,44.52,0,0,1-7.62-.63v-25h78.18c.29-3.75.29-7.78.29-11.23,0-45.75-24.72-85.18-78.47-85.25V100.5h250V262H696.89v73.43c-10.37-11.8-24.19-22.46-47.81-22.46-36.86,0-68.54,30.82-68.54,81.5V395c0,49.82,32,80.64,68.83,80.64,23.33,0,36.86-11.23,47.52-24.19v20.73Z" transform="translate(10 41.5)"/><path class="cls-2" d="M484.5,434.4v41.43c-46.27-2-78.54-33.8-78.76-80.33H479.5v-14h5V409.4H458.43C462.08,423.74,471.46,432.13,484.5,434.4Z" transform="translate(10 41.5)"/><path class="cls-2" d="M484.5,312.92v40.32a25.38,25.38,0,0,0-5,.51V313.06c1.6-.09,3.22-.14,4.85-.14Z" transform="translate(10 41.5)"/><path class="cls-2" d="M479.5,353.75v27.71H457.56C460.08,366.58,467.92,356.11,479.5,353.75Z" transform="translate(10 41.5)"/><path class="cls-2" d="M479.5-41.5V313.06c-43.5,2.43-73.77,37.47-73.77,81.36V395c0,.17,0,.33,0,.5H360.58c18.07-11.61,29.3-30,29.3-55.51v-.57c0-19.88-6.05-35.43-17.85-46.95-13.54-13.82-34.85-21.88-65.67-21.88H229.5V-41.5Z" transform="translate(10 41.5)"/><path class="cls-2" d="M348.41,401.91l48.1,70.27H332l-40.61-61.05H266.91v61.05H211V270.59H229.5V395.5H360.58A79.78,79.78,0,0,1,348.41,401.91Z" transform="translate(10 41.5)"/><path class="cls-2" d="M333.72,342.87v.58c0,14.69-10.94,23.9-30,23.9H266.91V319h36.57C322.2,319,333.72,327,333.72,342.87Z" transform="translate(10 41.5)"/><rect class="cls-3" x="10" y="41.5" width="960" height="494"/></svg>